<?xml version="1.0"?>
<svg xmlns="http://www.w3.org/2000/svg" xmlns:xlink="http://www.w3.org/1999/xlink" xmlns:svgjs="http://svgjs.com/svgjs" version="1.1" width="512" height="512" x="0" y="0" viewBox="0 0 511.998 511.998" style="enable-background:new 0 0 512 512" xml:space="preserve" class=""><g>
<path xmlns="http://www.w3.org/2000/svg" style="" d="M503.916,397.66c0,16.188-13.122,29.311-29.309,29.311H37.393c-16.188,0-29.309-13.124-29.309-29.311  V114.336c0-16.188,13.122-29.31,29.309-29.31h437.212c16.188,0,29.309,13.123,29.309,29.31v283.325L503.916,397.66L503.916,397.66z" fill="#18d26e" data-original="#e7e8e3" class=""/>
<g xmlns="http://www.w3.org/2000/svg">
	<path style="" d="M105.757,224.005c-7.25,0-12.747,1.624-16.922,4.048c0.088-0.014,0.172-0.031,0.261-0.045   c-0.6,0.3-1.164,0.621-1.712,0.952c-10.929,7.371-11.619,20.37-11.619,20.37h58.65   C134.416,249.329,134.416,224.005,105.757,224.005z" fill="#18d26e" data-original="#202121" class=""/>
	<path style="" d="M233.893,241.334c-7.412-12.106-17.492-15.321-26.108-15.32c-9.236,0-16.79,3.695-17.563,4.085   c-2.951,1.599-5.329,3.623-7.243,5.858c-7.764,9.756-7.245,22.704-7.245,22.704s-0.003,33.333,30.418,33.333   c0.299,0,0.603-0.003,0.907-0.01c15.568-0.332,23.394-8.4,27.332-16.432c3.472-7.898,3.326-15.555,3.326-15.555   S238.264,250.132,233.893,241.334z M221.575,259.104c-0.026,0.491-0.041,0.655-0.025,1.106c-0.016,0.632-0.18,4.6-1.827,8.528   c-1.76,3.452-4.757,6.905-13.006,7.081c-0.189,0.003-0.377,0.005-0.562,0.005c-6.202,0-9.54-2.021-11.908-7.209   c-2.169-4.754-2.342-9.906-2.342-9.954c0-0.318,0.008-0.307-0.009-0.569c-0.008-2.101,0.609-7.933,3.554-11.832   c0.659-0.727,1.393-1.322,2.231-1.808c0.872-0.398,5.229-2.269,10.105-2.269c5.15,0,8.748,2.085,11.906,6.941   C221.472,253.154,221.623,258.226,221.575,259.104z" fill="#18d26e" data-original="#202121" class=""/>
	<path style="" d="M308.363,260.662c0,0-0.567-0.024-1.551-0.024c-6.389,0-30.263,1.002-29.106,16.02   c1.332,15.995,21.326,15.995,21.326,15.995c0.372,0.006,0.737,0.011,1.101,0.011c35.471,0,31.551-32.002,30.889-32.002H308.363   L308.363,260.662z" fill="#18d26e" data-original="#202121" class=""/>
</g>
<g xmlns="http://www.w3.org/2000/svg" style="opacity:0.15;">
	<path style="" d="M28.922,397.66V114.336c0-16.188,13.124-29.31,29.311-29.31h-20.84   C21.206,85.024,8.084,98.148,8.084,114.335v283.324c0,16.188,13.122,29.311,29.309,29.311h20.84   C42.047,426.971,28.922,413.847,28.922,397.66z" fill="#18d26e" data-original="#202121" class=""/>
</g>
<path xmlns="http://www.w3.org/2000/svg" style="" d="M474.607,435.056H37.393C16.775,435.056,0,418.28,0,397.66V114.336  c0-20.62,16.775-37.394,37.393-37.394h437.212c20.619,0,37.393,16.775,37.393,37.394v31.459c0,4.466-3.62,8.084-8.084,8.084  c-4.466,0-8.084-3.618-8.084-8.084v-31.459c0-11.704-9.522-21.226-21.225-21.226H37.393c-11.703-0.001-21.225,9.521-21.225,21.225  v283.324c0,11.705,9.522,21.227,21.225,21.227h437.212c11.703,0,21.225-9.522,21.225-21.227V172.023  c0-4.466,3.618-8.084,8.084-8.084c4.465,0,8.084,3.618,8.084,8.084V397.66C512,418.28,495.226,435.056,474.607,435.056z" fill="#18d26e" data-original="#202121" class=""/>
<polygon xmlns="http://www.w3.org/2000/svg" style="" points="432.325,216.006 408.441,263.307 398.334,282.653 386.321,259.528 364.345,216.006   341.02,216.006 386.828,302.318 369.01,335.973 391.672,335.973 453.651,216.006 " fill="#ffffff" data-original="#4a9e19" class=""/>
<path xmlns="http://www.w3.org/2000/svg" style="" d="M155.075,262.66c0.667,0,6.668-51.981-48.651-51.981c-0.122,0-0.24,0.004-0.362,0.004  c-0.103,0-0.203-0.004-0.305-0.004l-0.009,0.009c-35.465,0.257-46.455,20.492-49.583,35.545c-0.012,0.014-0.024,0.026-0.036,0.04  c-1.591,7.412-4.593,28.77,9.052,44.373c0.003,0.003,0.005,0.007,0.009,0.01c7.212,8.114,19.227,14.662,39.235,14.662  c0.101,0,0.196-0.005,0.296-0.005c0.122,0.001,0.243,0.005,0.366,0.005c45.324,0,47.322-28.657,47.322-28.657h-0.667h-19.994h-0.667  c0,0-3.741,14.324-24.467,14.672c-0.501,0.001-1.005,0.003-1.526-0.013c-27.76,0-29.878-26.895-29.983-28.576  c-0.002-0.054-0.004-0.082-0.004-0.082h73.977h5.997L155.075,262.66L155.075,262.66z M75.765,249.329c0,0,0.691-13.001,11.619-20.37  c0.548-0.331,1.111-0.652,1.712-0.952c-0.088,0.014-0.172,0.031-0.261,0.045c4.175-2.423,9.672-4.048,16.922-4.048  c28.659,0,28.659,25.324,28.659,25.324L75.765,249.329L75.765,249.329z" fill="#ffffff" data-original="#c60c1e" class=""/>
<path xmlns="http://www.w3.org/2000/svg" style="" d="M215.361,211.397c-0.766-0.033-1.535-0.051-2.306-0.051c-24.837,0-34.285,14.096-34.636,14.635  v-49.959h-0.017h-22.661h-0.157v75.303v52.656h18.154h3.426l1.257-7.655c4.963,4.323,14.915,10.322,31.973,10.322  c8.8-0.587,17.082-2.598,24.226-6.084c15.044-6.924,25.299-21.254,25.76-41.904C260.377,229.608,239.113,212.441,215.361,211.397z   M234.393,275.552c-3.939,8.033-11.764,16.102-27.332,16.433c-31.325,0.668-31.325-33.323-31.325-33.323s-0.52-12.948,7.245-22.704  c1.913-2.234,4.291-4.259,7.243-5.858c1.494-0.756,28.314-13.852,43.671,11.235c4.371,8.797,3.825,18.662,3.825,18.662  S237.864,267.653,234.393,275.552z" fill="#ffffff" data-original="#064c91" class=""/>
<path xmlns="http://www.w3.org/2000/svg" style="" d="M352.349,302.65c0-0.655-0.645-7.139-0.665-20.679c0.015-9.431,0.318-17.938,0.293-25.103  c0.006-3.764-0.064-7.188-0.294-10.202c-0.667-9.997,0.667-35.32-42.654-37.321c0,0-41.32-0.668-45.985,25.992h3.179h19.071  c0.431-1.043,1.443-3.161,3.164-5.27c1.644-1.886,6.942-6.685,18.229-6.739c0.337,0.003,0.666,0.001,1.013,0.012  c8.651,0.278,14.251,2.201,17.85,5.266c0.033,0.027,0.066,0.046,0.1,0.075c0.02,0.017,0.037,0.037,0.057,0.055  c0.511,0.446,0.971,0.922,1.403,1.413l0.009-0.009c0,0,0.686,0.681,1.461,1.989c0.073,0.116,0.154,0.231,0.223,0.349  c-0.013-0.005-0.025-0.011-0.038-0.016c0.665,1.191,1.362,2.81,1.734,4.901c0,0.002,0,0.003,0,0.005  c0.585,2.618,0.522,4.627,0.522,4.627v4.026c-3.221,0.121-17.358,0.642-22.657,0.642c-8.466,0-33.297,0.854-44.846,12.536  c-3.36,3.142-5.734,7.109-6.472,12.123c-3.998,26.659,19.327,34.656,37.987,34.656c0.097,0,0.188-0.005,0.285-0.005  c0.128,0.001,0.257,0.005,0.385,0.005c18.179,0,28.764-5.076,36.693-14.585l0.627,11.916h0.667h17.991h0.667  c0,0-0.022-0.224-0.057-0.662h0.058L352.349,302.65L352.349,302.65z M299.033,292.653c0,0-19.994,0-21.326-15.995  c-1.334-17.328,30.656-15.996,30.656-15.996h22.658C331.69,260.662,335.688,293.32,299.033,292.653z" fill="#ffffff" data-original="#f48d1c" class=""/>
<path xmlns="http://www.w3.org/2000/svg" style="" d="M453.669,199.837L453.669,199.837c-0.004,0-0.009,0-0.012,0h-0.005h-21.326  c-6.101,0-11.683,3.434-14.433,8.881l-19.558,38.732l-19.558-38.733c-2.75-5.446-8.331-8.88-14.433-8.88h-23.325  c-0.21,0-0.418,0.013-0.627,0.022c-8.394-3.867-18.611-6.111-30.62-6.666c-0.143-0.006-0.344-0.012-0.487-0.015  c0,0-0.183-0.003-0.532-0.003c-3.32,0-15.112,0.305-27.449,4.242c-10.123,3.228-18.262,8.251-24.138,14.699  c-10.918-10.196-25.453-16.184-41.095-16.871c-0.999-0.044-2.012-0.067-3.016-0.067c-6.997,0-13.132,0.893-18.468,2.319v-21.475  c0-8.929-7.239-16.168-16.168-16.168H178.4h-22.66h-0.157c-8.929,0-16.168,7.239-16.168,16.168v25.325  c-8.414-4.073-19.197-6.837-32.991-6.837c-0.114,0-0.229,0.001-0.342,0.002c-0.111-0.001-0.217-0.002-0.326-0.002  c-0.227,0-0.454,0.005-0.679,0.015c-19.699,0.243-35.578,5.789-47.2,16.492c-8.598,7.918-14.577,18.599-17.33,30.941  c-0.084,0.304-0.16,0.611-0.226,0.922c-2.274,10.599-5.591,37.506,12.69,58.409c0.038,0.043,0.075,0.086,0.115,0.129  c11.847,13.314,29.107,20.065,51.3,20.065c0.109,0,0.215-0.001,0.32-0.003c0.119,0.002,0.231,0.003,0.343,0.003  c16.49,0,28.612-3.381,37.471-7.951c2.943,4.005,7.672,6.617,13.024,6.617h18.154h3.426c2.628,0,5.126-0.632,7.34-1.76  c6.887,2.612,15.434,4.428,25.889,4.428c0.359,0,0.719-0.012,1.077-0.036c11.07-0.739,21.186-3.297,30.074-7.606  c4.326-2.006,8.289-4.432,11.878-7.226c9.773,9.065,24.641,14.201,41.611,14.201c0.109,0,0.216-0.001,0.322-0.003  c0.114,0.002,0.231,0.003,0.347,0.003c11.103,0,20.59-1.666,28.755-5.122c2.489,1.555,5.426,2.452,8.565,2.452h0.667h17.991h0.667  c2.967,0,5.838-0.828,8.33-2.328l-5.959,11.255c-2.653,5.011-2.488,11.046,0.438,15.905c2.924,4.858,8.181,7.829,13.852,7.829  h22.663c6.047,0,11.588-3.375,14.365-8.747l61.798-119.618c1.267-2.306,1.988-4.954,1.988-7.771  C469.823,207.081,462.592,199.844,453.669,199.837z M155.075,262.66h-5.996h-9.663H75.102c0,0,0.002,0.028,0.004,0.082  c0.106,1.68,2.224,28.576,29.983,28.576c0.522,0.016,1.025,0.014,1.526,0.013c20.727-0.348,24.467-14.672,24.467-14.672h0.667h7.665  h12.329h0.667c0,0-0.929,13.252-15.776,21.731c-0.018,0.011-0.036,0.022-0.055,0.031c-0.968,0.552-1.998,1.082-3.088,1.589  c-0.05,0.023-0.098,0.045-0.148,0.068c-1.075,0.494-2.21,0.963-3.408,1.403c-0.078,0.027-0.156,0.056-0.235,0.084  c-0.57,0.206-1.152,0.406-1.753,0.599c-0.027,0.009-0.055,0.018-0.082,0.027c-0.624,0.199-1.265,0.389-1.921,0.572  c-0.105,0.028-0.211,0.057-0.317,0.085c-0.577,0.158-1.165,0.309-1.768,0.454c-0.099,0.024-0.196,0.049-0.295,0.072  c-0.676,0.157-1.369,0.308-2.077,0.451c-0.12,0.023-0.245,0.045-0.365,0.069c-0.608,0.117-1.23,0.229-1.862,0.334  c-0.154,0.025-0.306,0.052-0.462,0.077c-0.737,0.116-1.487,0.225-2.258,0.323c-0.119,0.015-0.243,0.027-0.362,0.042  c-0.667,0.082-1.348,0.156-2.042,0.223c-0.196,0.018-0.39,0.038-0.589,0.056c-0.805,0.071-1.623,0.136-2.463,0.188  c-0.095,0.005-0.193,0.009-0.288,0.015c-0.756,0.043-1.527,0.077-2.312,0.103c-0.232,0.008-0.463,0.015-0.696,0.022  c-0.885,0.024-1.782,0.039-2.703,0.039c-0.124,0-0.245-0.004-0.366-0.005c-0.101,0-0.196,0.005-0.296,0.005  c-20.009,0-32.023-6.546-39.235-14.661c-0.003-0.003-0.005-0.006-0.009-0.01c-13.645-15.603-10.643-36.961-9.052-44.373  c0.012-0.014,0.024-0.026,0.036-0.04c3.128-15.053,14.118-35.287,49.583-35.545l0.009-0.009c0.103,0,0.203,0.004,0.305,0.004  c0.122,0,0.24-0.004,0.362-0.004c0.909,0,1.797,0.016,2.672,0.043c0.285,0.01,0.559,0.026,0.84,0.038  c0.585,0.025,1.171,0.051,1.741,0.087c0.318,0.02,0.627,0.047,0.941,0.071c0.522,0.041,1.043,0.082,1.553,0.133  c0.315,0.03,0.622,0.068,0.932,0.102c0.497,0.056,0.991,0.113,1.475,0.179c0.301,0.041,0.597,0.085,0.893,0.129  c0.483,0.071,0.963,0.148,1.435,0.229c0.278,0.048,0.553,0.098,0.827,0.15c0.483,0.091,0.96,0.186,1.43,0.287  c0.245,0.052,0.49,0.105,0.733,0.158c0.497,0.113,0.984,0.232,1.466,0.355c0.204,0.052,0.409,0.102,0.609,0.156  c0.53,0.142,1.05,0.292,1.563,0.447c0.141,0.042,0.285,0.083,0.425,0.126c0.614,0.192,1.217,0.391,1.808,0.6  c0.031,0.012,0.064,0.023,0.096,0.032c3.893,1.388,7.249,3.155,10.142,5.187c0.001,0,0.002,0.001,0.002,0.001  C159.008,233.93,155.57,262.66,155.075,262.66z M368.513,302.357c0-0.019,0-0.041-0.001-0.06l0.017,0.03L368.513,302.357z   M391.672,335.973H369.01l17.819-33.656l-36.977-69.672c1.605,5.433,1.602,10.615,1.829,14.02c0.232,3.014,0.301,6.438,0.294,10.202  c0.015,4.267-0.086,9.021-0.174,14.153c-0.009,0.472-0.016,0.952-0.024,1.429c-0.011,0.608-0.019,1.223-0.028,1.842  c-0.006,0.417-0.012,0.835-0.017,1.257c-0.01,0.675-0.016,1.359-0.023,2.046c-0.003,0.383-0.008,0.764-0.011,1.15  c-0.009,1.064-0.015,2.136-0.017,3.226c0.022,13.539,0.665,20.023,0.665,20.679h-0.057c0.036,0.438,0.057,0.662,0.057,0.662h-0.667  h-17.991h-0.667l-0.627-11.916c-7.928,9.509-18.514,14.585-36.693,14.585c-0.128,0-0.257-0.004-0.385-0.005  c-0.097,0-0.188,0.005-0.285,0.005c-0.625,0-1.256-0.011-1.89-0.028c-0.198-0.006-0.398-0.017-0.597-0.025  c-0.44-0.016-0.88-0.035-1.324-0.061c-0.235-0.014-0.47-0.031-0.706-0.049c-0.413-0.028-0.826-0.059-1.24-0.097  c-0.243-0.022-0.486-0.046-0.731-0.07c-0.415-0.042-0.831-0.088-1.246-0.139c-0.235-0.028-0.471-0.058-0.706-0.089  c-0.437-0.059-0.873-0.123-1.31-0.192c-0.211-0.032-0.424-0.065-0.635-0.101c-0.486-0.081-0.971-0.171-1.456-0.265  c-0.16-0.031-0.32-0.06-0.48-0.093c-0.642-0.13-1.282-0.272-1.917-0.426c-0.001,0-0.001,0-0.002,0  c-1.324-0.322-2.629-0.697-3.91-1.125c-0.089-0.029-0.178-0.063-0.266-0.093c-0.535-0.182-1.065-0.374-1.59-0.576  c-0.128-0.05-0.255-0.102-0.384-0.154c-0.484-0.192-0.964-0.391-1.437-0.603c-0.137-0.06-0.274-0.123-0.411-0.185  c-0.467-0.213-0.927-0.435-1.383-0.667c-0.125-0.065-0.25-0.127-0.376-0.193c-0.473-0.248-0.94-0.508-1.399-0.776  c-0.095-0.056-0.192-0.11-0.287-0.165c-0.526-0.316-1.043-0.643-1.548-0.986c-0.019-0.014-0.039-0.025-0.059-0.039  c-1.087-0.743-2.118-1.551-3.083-2.432c-0.001,0-0.002-0.001-0.003-0.002l0,0c-4.787-4.363-7.92-10.45-8.049-18.705  c-2.845,6.971-7.18,12.699-12.622,17.098l0,0c-0.002,0.001-0.004,0.003-0.006,0.004c-0.706,0.57-1.427,1.121-2.17,1.647  c-0.019,0.014-0.04,0.026-0.059,0.04c-0.714,0.504-1.439,0.994-2.185,1.455c-0.19,0.118-0.387,0.225-0.579,0.341  c-0.595,0.356-1.189,0.714-1.801,1.043c-0.841,0.455-1.697,0.886-2.573,1.289c-7.143,3.485-15.426,5.496-24.226,6.084  c-17.058,0-27.011-6-31.973-10.322l-1.257,7.655h-3.426h-18h-0.151v-52.656v-38.198v-37.105h0.157h22.661h0.017v49.959  c0.351-0.539,9.799-14.635,34.636-14.635c0.771,0,1.539,0.017,2.306,0.051c0.774,0.033,1.545,0.087,2.312,0.155  c0.238,0.022,0.473,0.053,0.71,0.078c0.53,0.054,1.06,0.11,1.587,0.18c0.274,0.037,0.544,0.083,0.817,0.124  c0.489,0.073,0.978,0.149,1.464,0.236c0.278,0.05,0.553,0.109,0.83,0.163c0.478,0.094,0.955,0.191,1.428,0.299  c0.272,0.063,0.542,0.13,0.813,0.197c0.476,0.116,0.953,0.238,1.425,0.369c0.257,0.071,0.512,0.147,0.767,0.222  c0.484,0.143,0.966,0.292,1.445,0.448c0.238,0.078,0.473,0.157,0.709,0.24c0.498,0.171,0.992,0.35,1.482,0.538  c0.209,0.081,0.419,0.161,0.627,0.244c0.518,0.206,1.034,0.424,1.545,0.648c0.175,0.077,0.349,0.152,0.523,0.231  c0.552,0.25,1.097,0.513,1.636,0.784c0.128,0.064,0.257,0.125,0.383,0.191c0.608,0.31,1.206,0.635,1.798,0.971  c0.057,0.032,0.114,0.063,0.171,0.095c13.206,7.582,22.543,21.606,22.543,40.853c-0.034,1.576-0.147,3.102-0.293,4.604  c0.971-1.486,2.125-2.84,3.433-4.064c3.346-3.385,7.81-5.856,12.665-7.665l0,0c0.002-0.001,0.004-0.001,0.007-0.002  c0.737-0.275,1.483-0.534,2.236-0.779c0.009-0.002,0.016-0.005,0.024-0.008c1.507-0.489,3.041-0.922,4.581-1.301  c0.018-0.004,0.036-0.009,0.053-0.014c1.545-0.379,3.091-0.708,4.625-0.992c0.001,0,0.002-0.001,0.003-0.001  c2.302-0.425,4.568-0.75,6.736-0.999c0.021-0.002,0.041-0.004,0.061-0.006c1.415-0.161,2.783-0.29,4.091-0.391  c0.058-0.004,0.115-0.009,0.174-0.013c1.277-0.098,2.492-0.17,3.627-0.224c0.072-0.003,0.141-0.006,0.212-0.01  c0.493-0.022,0.969-0.041,1.43-0.057c0.071-0.002,0.144-0.005,0.215-0.008c0.504-0.016,0.987-0.029,1.447-0.039  c0.058-0.001,0.111-0.002,0.167-0.003c0.39-0.008,0.761-0.013,1.116-0.017c0.101-0.001,0.201-0.002,0.297-0.003  c0.382-0.003,0.746-0.005,1.079-0.005c5.299,0,19.436-0.521,22.657-0.642v-4.026c0,0,0.064-2.009-0.522-4.627  c0-0.002,0-0.003,0-0.005c-0.373-2.09-1.069-3.71-1.734-4.901c0.013,0.005,0.025,0.011,0.038,0.016  c-0.069-0.119-0.15-0.233-0.223-0.349c-0.776-1.307-1.461-1.989-1.461-1.989l-0.009,0.009c-0.431-0.492-0.892-0.967-1.403-1.413  c-0.019-0.018-0.037-0.038-0.057-0.055c-0.035-0.029-0.066-0.049-0.1-0.075c-3.6-3.064-9.199-4.987-17.85-5.266  c-0.347-0.011-0.676-0.009-1.013-0.012c-11.288,0.054-16.586,4.853-18.229,6.739c-1.72,2.108-2.731,4.226-3.164,5.27h-12.808h-6.264  h-3.179c0.803-4.589,2.709-8.352,5.286-11.464c0.125-0.152,0.249-0.307,0.378-0.457c0.282-0.327,0.576-0.641,0.874-0.953  c0.144-0.152,0.291-0.301,0.439-0.449c0.309-0.308,0.622-0.612,0.945-0.907c0.124-0.113,0.253-0.222,0.379-0.334  c1.149-1.009,2.374-1.931,3.659-2.769c0.106-0.068,0.208-0.14,0.315-0.208c0.4-0.254,0.805-0.5,1.216-0.741  c0.139-0.081,0.278-0.162,0.418-0.241c0.416-0.237,0.834-0.469,1.259-0.691c0.094-0.05,0.189-0.096,0.283-0.144  c1.437-0.738,2.911-1.395,4.408-1.978c0.08-0.03,0.158-0.065,0.24-0.095c0.464-0.178,0.927-0.347,1.393-0.512  c0.123-0.044,0.246-0.087,0.371-0.129c0.467-0.162,0.932-0.318,1.399-0.467c0.068-0.022,0.135-0.041,0.203-0.063  c1.53-0.48,3.053-0.893,4.549-1.246c0.078-0.019,0.156-0.038,0.234-0.056c0.454-0.107,0.903-0.205,1.351-0.301  c0.121-0.026,0.243-0.052,0.363-0.077c0.442-0.092,0.88-0.181,1.315-0.263c0.072-0.014,0.142-0.026,0.215-0.039  c1.401-0.262,2.749-0.476,4.025-0.651c0.098-0.013,0.197-0.027,0.293-0.04c0.371-0.05,0.732-0.095,1.089-0.137  c0.134-0.016,0.265-0.031,0.397-0.047c0.344-0.039,0.682-0.077,1.011-0.112c0.101-0.01,0.196-0.019,0.294-0.028  c1.065-0.107,2.04-0.185,2.914-0.243c0.113-0.008,0.23-0.015,0.338-0.022c0.24-0.015,0.466-0.027,0.688-0.039  c0.119-0.006,0.233-0.012,0.345-0.017c0.207-0.011,0.41-0.02,0.598-0.027c0.096-0.004,0.18-0.006,0.269-0.01  c0.646-0.023,1.163-0.034,1.536-0.038c0.033-0.001,0.07-0.001,0.102-0.002c0.376-0.002,0.596,0,0.596,0  c0.747,0.035,1.479,0.078,2.201,0.126c0.216,0.014,0.427,0.031,0.641,0.047c0.51,0.037,1.014,0.077,1.511,0.121  c0.224,0.02,0.445,0.041,0.666,0.064c0.494,0.046,0.981,0.097,1.461,0.152c0.191,0.022,0.382,0.043,0.57,0.066  c0.54,0.065,1.071,0.133,1.594,0.205c0.113,0.016,0.229,0.03,0.342,0.047c2.69,0.384,5.162,0.877,7.433,1.465  c0.002,0.001,0.004,0.001,0.008,0.002l0,0c9.274,2.398,15.202,6.355,19.01,10.857l-3.439-6.493h18.759h4.565l21.977,43.522  l12.013,23.124l10.107-19.345l23.884-47.301h21.326L391.672,335.973z" fill="#18d26e" data-original="#202121" class=""/>
<g xmlns="http://www.w3.org/2000/svg">
</g>
<g xmlns="http://www.w3.org/2000/svg">
</g>
<g xmlns="http://www.w3.org/2000/svg">
</g>
<g xmlns="http://www.w3.org/2000/svg">
</g>
<g xmlns="http://www.w3.org/2000/svg">
</g>
<g xmlns="http://www.w3.org/2000/svg">
</g>
<g xmlns="http://www.w3.org/2000/svg">
</g>
<g xmlns="http://www.w3.org/2000/svg">
</g>
<g xmlns="http://www.w3.org/2000/svg">
</g>
<g xmlns="http://www.w3.org/2000/svg">
</g>
<g xmlns="http://www.w3.org/2000/svg">
</g>
<g xmlns="http://www.w3.org/2000/svg">
</g>
<g xmlns="http://www.w3.org/2000/svg">
</g>
<g xmlns="http://www.w3.org/2000/svg">
</g>
<g xmlns="http://www.w3.org/2000/svg">
</g>
</g></svg>
