<svg height="464pt" viewBox="-31 0 463 464" width="464pt" xmlns="http://www.w3.org/2000/svg"><path d="m336.5 464c-17.671875 0-32-14.328125-32-32v-32h-272v-320h80v-80h256v432c0 17.671875-14.328125 32-32 32zm0 0" fill="#f4f4e6"/><path d="m112.5 80h-80l80-80zm0 0" fill="#cfdfe8"/><path d="m144.5 32h256v128h-256zm0 0" fill="#f9bb4b"/><path d="m32.5 464c-17.671875 0-32-14.328125-32-32v-32h304v32c0 17.671875 14.328125 32 32 32zm0 0" fill="#cfdfe8"/><path d="m56.5 104h16v16h-16zm0 0" fill="#eb8cb3"/><path d="m88.5 128h16v16h-16zm0 0" fill="#eb8cb3"/><g fill="#394d5c"><path d="m224.5 136h-48c-4.417969 0-8-3.582031-8-8v-64c0-4.417969 3.582031-8 8-8h56v16h-48v48h32v-16h-16v-16h24c4.417969 0 8 3.582031 8 8v32c0 4.417969-3.582031 8-8 8zm0 0"/><path d="m248.5 56h16v80h-16zm0 0"/><path d="m280.5 56h64v16h-64zm0 0"/><path d="m304.5 64h16v72h-16zm0 0"/></g><path d="m64.5 192h272v176h-272zm0 0" fill="#32b1cc"/><path d="m286.15625 298.34375-28.082031-28.078125-37.148438 18.535156 7.148438 14.320313 18.328125-9.167969c-6.15625 20.199219-24.78125 34.015625-45.902344 34.046875-16.289062.082031-31.660156-7.546875-41.441406-20.574219l-13.117188 9.148438c12.816406 17.265625 33.054688 27.4375 54.558594 27.425781 28.78125-.054688 53.996094-19.292969 61.648438-47.039062l12.695312 12.695312zm0 0" fill="#e33e5c"/><path d="m172.925781 256.800781-18.328125 9.167969c6.1875-20.171875 24.804688-33.949219 45.902344-33.96875 16.34375-1.195312 32.0625 6.496094 41.152344 20.128906l13.695312-8.257812c-11.886718-18.535156-32.867187-29.199219-54.847656-27.871094-28.78125.054688-53.996094 19.292969-61.648438 47.039062l-12.695312-12.695312-11.3125 11.3125 28.082031 28.078125 37.148438-18.535156zm0 0" fill="#e33e5c"/><path d="m88.5 216h16v16h-16zm0 0" fill="#195c85"/><path d="m280.5 328h32v16h-32zm0 0" fill="#195c85"/></svg>