<?xml version="1.0"?>
<svg xmlns="http://www.w3.org/2000/svg" xmlns:xlink="http://www.w3.org/1999/xlink" xmlns:svgjs="http://svgjs.com/svgjs" version="1.1" width="512" height="512" x="0" y="0" viewBox="0 0 512 512" style="enable-background:new 0 0 512 512" xml:space="preserve" class=""><g><linearGradient xmlns="http://www.w3.org/2000/svg" id="New_Gradient_Swatch_2" gradientUnits="userSpaceOnUse" x1="246.278" x2="246.278" y1="27.985" y2="397.527"><stop stop-opacity="1" stop-color="#00ef28" offset="0"/><stop stop-opacity="1" stop-color="#5ef371" offset="0.129"/><stop stop-opacity="1" stop-color="#65d989" offset="0.343"/><stop stop-opacity="1" stop-color="#05d75e" offset="0.616"/><stop stop-opacity="1" stop-color="#00be4a" offset="0.934"/><stop stop-opacity="1" stop-color="#09ed61" offset="1"/></linearGradient><linearGradient xmlns="http://www.w3.org/2000/svg" xmlns:xlink="http://www.w3.org/1999/xlink" id="New_Gradient_Swatch_2-2" x1="336" x2="336" xlink:href="#New_Gradient_Swatch_2" y1="27.985" y2="397.527"/><linearGradient xmlns="http://www.w3.org/2000/svg" xmlns:xlink="http://www.w3.org/1999/xlink" id="New_Gradient_Swatch_2-3" x1="256" x2="256" xlink:href="#New_Gradient_Swatch_2" y1="27.985" y2="397.527"/><linearGradient xmlns="http://www.w3.org/2000/svg" xmlns:xlink="http://www.w3.org/1999/xlink" id="New_Gradient_Swatch_2-4" x1="152" x2="152" xlink:href="#New_Gradient_Swatch_2" y1="27.985" y2="397.527"/><linearGradient xmlns="http://www.w3.org/2000/svg" xmlns:xlink="http://www.w3.org/1999/xlink" id="New_Gradient_Swatch_2-5" x1="112" x2="112" xlink:href="#New_Gradient_Swatch_2" y1="27.985" y2="397.527"/><linearGradient xmlns="http://www.w3.org/2000/svg" xmlns:xlink="http://www.w3.org/1999/xlink" id="New_Gradient_Swatch_2-6" x1="184" x2="184" xlink:href="#New_Gradient_Swatch_2" y1="27.985" y2="397.527"/><linearGradient xmlns="http://www.w3.org/2000/svg" xmlns:xlink="http://www.w3.org/1999/xlink" id="New_Gradient_Swatch_2-7" x1="232" x2="232" xlink:href="#New_Gradient_Swatch_2" y1="27.985" y2="397.527"/><linearGradient xmlns="http://www.w3.org/2000/svg" xmlns:xlink="http://www.w3.org/1999/xlink" id="New_Gradient_Swatch_2-8" x1="400" x2="400" xlink:href="#New_Gradient_Swatch_2" y1="27.985" y2="397.527"/><g xmlns="http://www.w3.org/2000/svg" id="GD001"><path d="m422.584 118.483c9.31-36.022 5.225-64.028-11.907-81.16-12.611-12.611-30.922-18.149-54.431-16.473-20.807 1.488-44.752 8.593-71.188 21.091a219.277 219.277 0 0 0 -29.058-1.941 216 216 0 0 0 -216 216 219.277 219.277 0 0 0 1.941 29.058c-12.5 26.436-19.6 50.381-21.091 71.188-1.68 23.506 3.862 41.82 16.473 54.431 11.153 11.153 26.913 16.779 46.5 16.779a139.81 139.81 0 0 0 34.657-4.877 216.014 216.014 0 0 0 304.107-304.1zm-65.2-81.673c18.669-1.333 32.793 2.644 41.976 11.827 8.2 8.2 15.943 24.3 10.092 55.366-.242-.245-.477-.494-.72-.738a214.75 214.75 0 0 0 -95.928-55.748c16.337-6.117 31.47-9.77 44.583-10.707zm-135.1 22.047-6.094 27.407a8 8 0 0 0 5.28 9.325l44.205 14.736 6.736 20.2a8 8 0 0 0 3.151 4.126l19.31 12.873-5.919 23.676-49.11 35.079-19.22-12.814-31.823-23.865a8 8 0 0 0 -10.457.743l-24 24a8 8 0 0 0 -2.343 5.657v36.686l-12.5 12.5-38.475 15.39a8 8 0 0 0 -3.685 2.99l-16 24a7.993 7.993 0 0 0 -1.34 4.434v36l-6.8 5.1a198.842 198.842 0 0 1 -17.2-81.1c0-98.79 72-181.068 166.283-197.143zm-173.647 340.506c-9.183-9.182-13.162-23.305-11.827-41.976.937-13.113 4.59-28.246 10.707-44.58a214.75 214.75 0 0 0 55.748 95.928c.244.244.494.479.739.721-31.068 5.849-47.166-1.893-55.367-10.093zm101.263-20.941-12.285-18.422 12.6-18.9 14.522-14.522 26.686-13.344 20.137 13.425a7.993 7.993 0 0 0 4.44 1.341h12.687l10.695 10.7c-25.768 20.357-51.757 37.2-76.381 49.556zm100.862-28.35 7.585 7.585a8 8 0 0 0 7.6 2.1l24.813-6.2 4.807 14.443-5.892 17.675-20.2 6.736a8 8 0 0 0 -5.475 7.589v19.719l-20.438 13.625a8 8 0 0 0 -3.323 4.714l-4.239 16.942a198.85 198.85 0 0 1 -29.967-5.322l-6.112-42.812a8 8 0 0 0 -7.921-6.866h-13.333l-1.469-1.1c23.962-12.7 48.915-29.244 73.56-48.828zm-79.562 64.328a8 8 0 0 0 4.8 1.6h9.061l4.067 28.488a199.749 199.749 0 0 1 -51.925-27.7q11.7-4.188 23.977-9.907zm81.055 41.552 2.755-11.011 21.428-14.285a8 8 0 0 0 3.562-6.656v-18.234l18.53-6.177a8 8 0 0 0 5.059-5.059l8-24a7.992 7.992 0 0 0 0-5.06l-8-24a8 8 0 0 0 -9.529-5.231l-27.606 6.9-3.245-3.245q11.2-9.414 22.227-19.6l-10.872-11.74q-11.249 10.417-22.709 19.991l-14.2-14.2a8 8 0 0 0 -5.655-2.345h-13.578l-21.984-14.656a8 8 0 0 0 -8.016-.5l-32 16a7.986 7.986 0 0 0 -2.079 1.5l-16 16a8.052 8.052 0 0 0 -1 1.219l-16 24a8 8 0 0 0 0 8.876l16 24a8.014 8.014 0 0 0 1.857 1.961l7.36 5.52a237.33 237.33 0 0 1 -24.022 8.9 201.3 201.3 0 0 1 -42.12-53.131l12.382-9.289a8 8 0 0 0 3.2-6.4v-37.578l13.278-19.917 37.693-15.077a8.01 8.01 0 0 0 2.686-1.771l16-16a8 8 0 0 0 2.343-5.657v-36.687l16.75-16.75 26.45 19.837q.177.133.362.256l24 16a8 8 0 0 0 9.088-.146l56-40a8 8 0 0 0 3.111-4.57l8-32a8 8 0 0 0 -3.323-8.6l-21.716-14.478-7.133-21.4a8 8 0 0 0 -5.059-5.059l-41.155-13.711 5.774-25.975c5.558-.466 11.175-.717 16.851-.717a199.545 199.545 0 0 1 148.818 66.536c-6.156 20.121-16.333 42.079-30.3 65.347l13.718 8.234c12.381-20.63 21.942-40.376 28.556-58.91a199 199 0 0 1 36.855 88.126l-25.833 15.848a8 8 0 0 0 -3.578 4.879l-14.936 59.74-43.83 14.611a8 8 0 0 0 -5.47 7.589v44.686l-13.657 13.657a8 8 0 0 0 -1.289 9.626l16.9 29.581a198.8 198.8 0 0 1 -105.954 30.45c-1.252 0-2.5-.025-3.745-.048zm122.953-39.46-13.23-23.156 11.679-11.679a8 8 0 0 0 2.343-5.657v-42.234l42.53-14.177a8 8 0 0 0 5.231-5.649l15.208-60.83 16.593-10.179c.28 4.322.438 8.677.438 13.069a199.831 199.831 0 0 1 -80.792 160.492z" fill="url(#New_Gradient_Swatch_2)" data-original="url(#New_Gradient_Swatch_2)" style=""/><path d="m400 288v-64a8 8 0 0 0 -5.8-7.692l-56-16a7.991 7.991 0 0 0 -4.4 0l-56 16a8 8 0 0 0 -5.8 7.692v64a8 8 0 0 0 5.8 7.692l56 16a8 8 0 0 0 4.4 0l56-16a8 8 0 0 0 5.8-7.692zm-64-71.68 26.879 7.68-26.879 7.68-26.879-7.68zm-48 18.286 40 11.429v47.359l-40-11.428zm56 58.788v-47.359l40-11.429v47.36z" fill="url(#New_Gradient_Swatch_2-2)" data-original="url(#New_Gradient_Swatch_2-2)" style=""/><path d="m248 152h16v16h-16z" fill="url(#New_Gradient_Swatch_2-3)" data-original="url(#New_Gradient_Swatch_2-3)" style=""/><path d="m144 120h16v16h-16z" fill="url(#New_Gradient_Swatch_2-4)" data-original="url(#New_Gradient_Swatch_2-4)" style=""/><path d="m104 216h16v16h-16z" fill="url(#New_Gradient_Swatch_2-5)" data-original="url(#New_Gradient_Swatch_2-5)" style=""/><path d="m176 336h16v16h-16z" fill="url(#New_Gradient_Swatch_2-6)" data-original="url(#New_Gradient_Swatch_2-6)" style=""/><path d="m224 392h16v16h-16z" fill="url(#New_Gradient_Swatch_2-7)" data-original="url(#New_Gradient_Swatch_2-7)" style=""/><path d="m392 344h16v16h-16z" fill="url(#New_Gradient_Swatch_2-8)" data-original="url(#New_Gradient_Swatch_2-8)" style=""/></g></g></svg>
