<?xml version="1.0"?>
<svg xmlns="http://www.w3.org/2000/svg" xmlns:xlink="http://www.w3.org/1999/xlink" xmlns:svgjs="http://svgjs.com/svgjs" version="1.1" width="512" height="512" x="0" y="0" viewBox="0 0 512 512.00085" style="enable-background:new 0 0 512 512" xml:space="preserve" class=""><g><path xmlns="http://www.w3.org/2000/svg" d="m225.421875 433.898438h78.101563v78.101562h-78.101563zm0 0" fill="#18d26e" data-original="#000000" style="" class=""/><path xmlns="http://www.w3.org/2000/svg" d="m320.878906 433.898438h78.101563v78.101562h-78.101563zm0 0" fill="#18d26e" data-original="#000000" style="" class=""/><path xmlns="http://www.w3.org/2000/svg" d="m416.339844 512h69.421875c4.792969 0 8.679687-3.882812 8.679687-8.675781v-69.425781h-78.101562zm0 0" fill="#18d26e" data-original="#000000" style="" class=""/><path xmlns="http://www.w3.org/2000/svg" d="m320.878906 338.441406h78.101563v78.101563h-78.101563zm0 0" fill="#18d26e" data-original="#000000" style="" class=""/><path xmlns="http://www.w3.org/2000/svg" d="m416.339844 338.441406h78.101562v78.101563h-78.101562zm0 0" fill="#18d26e" data-original="#000000" style="" class=""/><path xmlns="http://www.w3.org/2000/svg" d="m416.339844 242.984375h78.101562v78.101563h-78.101562zm0 0" fill="#18d26e" data-original="#000000" style="" class=""/><path xmlns="http://www.w3.org/2000/svg" d="m103.929688 416.542969c0 9.585937 7.773437 17.355469 17.359374 17.355469h8.675782v69.425781c0 4.792969 3.886718 8.675781 8.679687 8.675781h69.421875v-112.8125h-86.777344c-9.585937 0-17.359374 7.769531-17.359374 17.355469zm0 0" fill="#18d26e" data-original="#000000" style="" class=""/><path xmlns="http://www.w3.org/2000/svg" d="m199.390625 321.085938c0 9.585937 7.769531 17.355468 17.355469 17.355468h8.675781v78.101563h78.101563v-112.8125h-86.777344c-9.585938 0-17.355469 7.769531-17.355469 17.355469zm0 0" fill="#18d26e" data-original="#000000" style="" class=""/><path xmlns="http://www.w3.org/2000/svg" d="m294.847656 225.628906c0 9.585938 7.769532 17.355469 17.355469 17.355469h8.675781v78.101563h78.101563v-112.8125h-86.777344c-9.585937 0-17.355469 7.769531-17.355469 17.355468zm0 0" fill="#18d26e" data-original="#000000" style="" class=""/><path xmlns="http://www.w3.org/2000/svg" d="m390.304688 130.171875c0 9.582031 7.769531 17.355469 17.355468 17.355469h8.679688v78.101562h78.101562v-112.816406h-86.78125c-9.585937 0-17.355468 7.773438-17.355468 17.359375zm0 0" fill="#18d26e" data-original="#000000" style="" class=""/><path xmlns="http://www.w3.org/2000/svg" d="m201.316406 115.886719c.433594.433593 44.125 44.003906 51.789063 90l33.929687 1.515625c.980469-3.746094 23.597656-92.695313-30.554687-146.855469l-24.558594-24.515625c-23.578125-23.570312-57.8125-36.03125-99.007813-36.03125-16.109374-.046875-32.167968 1.796875-47.847656 5.484375l1.5625 33.90625c45.75 7.628906 89.554688 51.363281 90.066406 51.875l-171.824218 171.824219c-6.574219 6.8125-6.480469 17.636718.210937 24.332031 6.695313 6.695313 17.523438 6.789063 24.332031.210937l171.824219-171.824218zm0 0" fill="#18d26e" data-original="#000000" style="" class=""/><path xmlns="http://www.w3.org/2000/svg" d="m320.878906 147.527344v-17.355469c0-4.792969-3.882812-8.679687-8.675781-8.679687s-8.679687 3.886718-8.679687 8.679687v17.355469c0 4.792968 3.886718 8.675781 8.679687 8.675781s8.675781-3.882813 8.675781-8.675781zm0 0" fill="#18d26e" data-original="#000000" style="" class=""/><path xmlns="http://www.w3.org/2000/svg" d="m344.371094 171.015625 17.355468-17.355469c3.289063-3.402344 3.242188-8.816406-.105468-12.164062s-8.757813-3.394532-12.164063-.105469l-17.355469 17.355469c-2.257812 2.179687-3.160156 5.40625-2.367187 8.441406.792969 3.03125 3.164063 5.402344 6.199219 6.195312 3.03125.796876 6.257812-.109374 8.4375-2.367187zm0 0" fill="#18d26e" data-original="#000000" style="" class=""/><path xmlns="http://www.w3.org/2000/svg" d="m256.253906 226.539062-17.355468 8.679688c-4.289063 2.140625-6.027344 7.355469-3.886719 11.644531 2.144531 4.289063 7.355469 6.03125 11.644531 3.886719l17.359375-8.675781c4.289063-2.144531 6.027344-7.359375 3.886719-11.648438-2.144532-4.289062-7.355469-6.027343-11.648438-3.886719zm0 0" fill="#18d26e" data-original="#000000" style="" class=""/></g></svg>
