<svg xmlns="http://www.w3.org/2000/svg" viewBox="0 0 97.1 111.3"><defs><style>.cls-1{fill:#7bc143;}.cls-2{fill:#fdfefd;}</style></defs><g id="Слой_2" data-name="Слой 2"><g id="OBJECTS"><path class="cls-1" d="M96.9,47.15c-.86,11.41-6.64,21.54-13,31A109,109,0,0,1,65.08,99.75,88.55,88.55,0,0,1,51.53,110c-.44.26-1.51.29-1.28,1.34H47.59c.5-.34,0-.59-.14-.66A67.56,67.56,0,0,1,34,101a115.54,115.54,0,0,1-18.7-20.5,97.8,97.8,0,0,1-9.49-17C3.18,57.36,1.35,52.52.51,44.57-.92,31,1,18.63,1.66,17.47c.38-.71.34-1.54,1.27-1.88C10.14,12.93,44.82,0,47.79,0c4.29,0,36.56,11.8,46,15.32,1.17.43,2.27,1.09,2.41,2.51C96.4,20.37,97.57,38.37,96.9,47.15ZM48.74,70.68c4,0,8.09,0,12.14,0s6.65-2.37,6.73-6.36c.11-5.69.1-11.38,0-17.07-.06-3.67-2.18-5.94-5.74-6.29-1.07-.11-1.41-.43-1.38-1.48.06-2.27,0-4.55,0-6.82A10.59,10.59,0,0,0,57,24.54c-3.32-3-7.37-3.11-11.43-2.66-5.92.65-9.51,4.84-9.54,10.76v6.83c0,.73,0,1.25-1,1.54-3.79,1.23-5,2.9-5,6.79,0,5.37,0,10.74,0,16.12,0,4.26,2.42,6.71,6.68,6.75C40.78,70.7,44.76,70.68,48.74,70.68Z"/><path class="cls-2" d="M48.74,70.68c-4,0-8,0-11.94,0-4.26,0-6.67-2.49-6.68-6.75,0-5.38,0-10.75,0-16.12,0-3.89,1.19-5.56,5-6.79.92-.29,1-.81,1-1.54V32.64c0-5.92,3.62-10.11,9.54-10.76,4.06-.45,8.11-.37,11.43,2.66a10.59,10.59,0,0,1,3.47,8.11c0,2.27,0,4.55,0,6.82,0,1.05.31,1.37,1.38,1.48,3.56.35,5.68,2.62,5.74,6.29.1,5.69.11,11.38,0,17.07-.08,4-2.68,6.34-6.73,6.36S52.79,70.68,48.74,70.68ZM48.26,40.9c1.64,0,3.28,0,4.92,0,1,0,1.36-.32,1.32-1.31a41.43,41.43,0,0,1,0-4.17c.48-8-2.76-7.83-8.09-7.64A4.34,4.34,0,0,0,42,32.08c-.12,2.52,0,5.05-.06,7.58,0,1.08.52,1.26,1.4,1.25C45,40.88,46.62,40.9,48.26,40.9Z"/><path class="cls-1" d="M48.26,40.9c-1.64,0-3.29,0-4.93,0-.88,0-1.42-.17-1.4-1.25.06-2.53-.06-5.06.06-7.58a4.34,4.34,0,0,1,4.42-4.29c5.33-.19,8.57-.41,8.09,7.64a41.43,41.43,0,0,0,0,4.17c0,1-.35,1.34-1.32,1.31C51.54,40.86,49.9,40.9,48.26,40.9Z"/></g></g></svg>