<?xml version="1.0"?>
<svg xmlns="http://www.w3.org/2000/svg" xmlns:xlink="http://www.w3.org/1999/xlink" xmlns:svgjs="http://svgjs.com/svgjs" version="1.1" width="512" height="512" x="0" y="0" viewBox="0 0 74 74" style="enable-background:new 0 0 512 512" xml:space="preserve" class=""><g transform="matrix(1,2.4492935982947064e-16,-2.4492935982947064e-16,1,2.842170943040401e-14,-1.4210854715202004e-14)"><path xmlns="http://www.w3.org/2000/svg" d="m56.175 71.063h-8.7a1 1 0 0 1 -1-1v-56.126a1 1 0 0 1 1-1h8.7a1 1 0 0 1 1 1v56.126a1 1 0 0 1 -1 1zm-7.7-2h6.7v-54.126h-6.7z" fill="#18d26e" data-original="#000000" style="" class=""/><path xmlns="http://www.w3.org/2000/svg" d="m71 71.063h-8.7a1 1 0 0 1 -1-1v-66.126a1 1 0 0 1 1-1h8.7a1 1 0 0 1 1 1v66.126a1 1 0 0 1 -1 1zm-7.7-2h6.7v-64.126h-6.7z" fill="#18d26e" data-original="#000000" style="" class=""/><path xmlns="http://www.w3.org/2000/svg" d="m41.35 71.063h-8.7a1 1 0 0 1 -1-1v-44.607a1 1 0 0 1 1-1h8.7a1 1 0 0 1 1 1v44.607a1 1 0 0 1 -1 1zm-7.7-2h6.7v-42.607h-6.7z" fill="#18d26e" data-original="#000000" style="" class=""/><path xmlns="http://www.w3.org/2000/svg" d="m26.524 71.063h-8.7a1 1 0 0 1 -1-1v-32.163a1 1 0 0 1 1-1h8.7a1 1 0 0 1 1 1v32.163a1 1 0 0 1 -1 1zm-7.7-2h6.7v-30.163h-6.7z" fill="#18d26e" data-original="#000000" style="" class=""/><path xmlns="http://www.w3.org/2000/svg" d="m11.7 71.063h-8.7a1 1 0 0 1 -1-1v-18.605a1 1 0 0 1 1-1h8.7a1 1 0 0 1 1 1v18.605a1 1 0 0 1 -1 1zm-7.7-2h6.7v-16.605h-6.7z" fill="#18d26e" data-original="#000000" style="" class=""/></g></svg>
